<mxfile host="app.diagrams.net" modified="2020-12-08T11:44:25.092Z" agent="5.0 (Windows NT 10.0; Win64; x64) AppleWebKit/537.36 (KHTML, like Gecko) Chrome/87.0.4280.88 Safari/537.36" etag="rk7P_tQ74epFmtTqQLiY" version="13.10.9" type="github">
  <diagram name="Page-1" id="e7e014a7-5840-1c2e-5031-d8a46d1fe8dd">
    <mxGraphModel dx="1727" dy="947" grid="1" gridSize="10" guides="1" tooltips="1" connect="1" arrows="1" fold="1" page="1" pageScale="1" pageWidth="827" pageHeight="1169" background="#ffffff" math="0" shadow="0">
      <root>
        <mxCell id="0" />
        <mxCell id="1" parent="0" />
        <mxCell id="8efTD4OEWqOGp4i1g3Z0-41" value="" style="ellipse;fillColor=#000000;strokeColor=none;aspect=fixed;" parent="1" vertex="1">
          <mxGeometry x="395" y="133" width="40" height="41.03" as="geometry" />
        </mxCell>
        <mxCell id="8efTD4OEWqOGp4i1g3Z0-45" value="" style="endArrow=open;endFill=1;endSize=12;html=1;fontSize=21;exitX=0.5;exitY=1;exitDx=0;exitDy=0;entryX=0.5;entryY=0;entryDx=0;entryDy=0;" parent="1" source="8efTD4OEWqOGp4i1g3Z0-41" target="8efTD4OEWqOGp4i1g3Z0-57" edge="1">
          <mxGeometry width="160" relative="1" as="geometry">
            <mxPoint x="415" y="546" as="sourcePoint" />
            <mxPoint x="415" y="616" as="targetPoint" />
          </mxGeometry>
        </mxCell>
        <mxCell id="8efTD4OEWqOGp4i1g3Z0-47" value="" style="endArrow=open;endFill=1;endSize=12;html=1;fontSize=21;exitX=0.5;exitY=1;exitDx=0;exitDy=0;entryX=0.5;entryY=0;entryDx=0;entryDy=0;" parent="1" source="E-XWAP4hK30kMrymUo2u-5" target="E-XWAP4hK30kMrymUo2u-7" edge="1">
          <mxGeometry width="160" relative="1" as="geometry">
            <mxPoint x="415" y="826" as="sourcePoint" />
            <mxPoint x="415" y="643" as="targetPoint" />
          </mxGeometry>
        </mxCell>
        <mxCell id="8efTD4OEWqOGp4i1g3Z0-57" value="&lt;span style=&quot;font-size: 19px&quot;&gt;کلیک کردن بر روی خروج از حساب کاربری&lt;/span&gt;" style="shape=rect;html=1;rounded=1;whiteSpace=wrap;align=center;fontSize=21;fontStyle=1" parent="1" vertex="1">
          <mxGeometry x="328" y="243" width="174" height="70" as="geometry" />
        </mxCell>
        <mxCell id="8efTD4OEWqOGp4i1g3Z0-59" value="" style="ellipse;html=1;shape=endState;fillColor=#000000;strokeColor=#000000;aspect=fixed;" parent="1" vertex="1">
          <mxGeometry x="393.25" y="993" width="43.5" height="43.5" as="geometry" />
        </mxCell>
        <mxCell id="8efTD4OEWqOGp4i1g3Z0-60" value="&lt;span style=&quot;font-size: 19px&quot;&gt;بازگشت به صفحه ی اصلی&lt;br&gt;&lt;/span&gt;" style="shape=rect;html=1;rounded=1;whiteSpace=wrap;align=center;fontSize=21;fontStyle=1" parent="1" vertex="1">
          <mxGeometry x="512" y="743" width="174" height="70" as="geometry" />
        </mxCell>
        <mxCell id="8efTD4OEWqOGp4i1g3Z0-61" value="" style="endArrow=open;endFill=1;endSize=12;html=1;fontSize=21;entryX=0.5;entryY=0;entryDx=0;entryDy=0;exitX=0.5;exitY=1;exitDx=0;exitDy=0;" parent="1" source="E-XWAP4hK30kMrymUo2u-12" target="8efTD4OEWqOGp4i1g3Z0-59" edge="1">
          <mxGeometry width="160" relative="1" as="geometry">
            <mxPoint x="429.25" y="823" as="sourcePoint" />
            <mxPoint x="413.25" y="926" as="targetPoint" />
          </mxGeometry>
        </mxCell>
        <mxCell id="E-XWAP4hK30kMrymUo2u-5" value="&lt;span style=&quot;font-size: 19px&quot;&gt;انتخاب گزینه موردنظر&lt;/span&gt;" style="shape=rect;html=1;rounded=1;whiteSpace=wrap;align=center;fontSize=21;fontStyle=1" vertex="1" parent="1">
          <mxGeometry x="328" y="503" width="174" height="70" as="geometry" />
        </mxCell>
        <mxCell id="E-XWAP4hK30kMrymUo2u-6" value="" style="endArrow=open;endFill=1;endSize=12;html=1;fontSize=21;exitX=0.5;exitY=1;exitDx=0;exitDy=0;entryX=0.5;entryY=0;entryDx=0;entryDy=0;" edge="1" parent="1" source="8efTD4OEWqOGp4i1g3Z0-57" target="E-XWAP4hK30kMrymUo2u-20">
          <mxGeometry width="160" relative="1" as="geometry">
            <mxPoint x="411.5" y="373" as="sourcePoint" />
            <mxPoint x="415" y="373" as="targetPoint" />
          </mxGeometry>
        </mxCell>
        <mxCell id="E-XWAP4hK30kMrymUo2u-7" value="" style="rhombus;" vertex="1" parent="1">
          <mxGeometry x="368" y="639" width="93" height="85" as="geometry" />
        </mxCell>
        <mxCell id="E-XWAP4hK30kMrymUo2u-9" value="&lt;span style=&quot;font-size: 13px&quot;&gt;انتخاب تایید&lt;/span&gt;" style="endArrow=open;endFill=1;endSize=12;html=1;fontSize=21;exitX=0;exitY=0.5;exitDx=0;exitDy=0;entryX=0.5;entryY=0;entryDx=0;entryDy=0;" edge="1" parent="1" source="E-XWAP4hK30kMrymUo2u-7" target="E-XWAP4hK30kMrymUo2u-11">
          <mxGeometry width="160" relative="1" as="geometry">
            <mxPoint x="425" y="453" as="sourcePoint" />
            <mxPoint x="425" y="513" as="targetPoint" />
            <Array as="points">
              <mxPoint x="228" y="682" />
            </Array>
          </mxGeometry>
        </mxCell>
        <mxCell id="E-XWAP4hK30kMrymUo2u-10" value="&lt;font style=&quot;font-size: 13px&quot;&gt;انتخاب انصراف&lt;/font&gt;" style="endArrow=open;endFill=1;endSize=12;html=1;fontSize=21;exitX=1;exitY=0.5;exitDx=0;exitDy=0;entryX=0.5;entryY=0;entryDx=0;entryDy=0;" edge="1" parent="1" source="E-XWAP4hK30kMrymUo2u-7" target="8efTD4OEWqOGp4i1g3Z0-60">
          <mxGeometry width="160" relative="1" as="geometry">
            <mxPoint x="491" y="473" as="sourcePoint" />
            <mxPoint x="601" y="763" as="targetPoint" />
            <Array as="points">
              <mxPoint x="598" y="682" />
            </Array>
          </mxGeometry>
        </mxCell>
        <mxCell id="E-XWAP4hK30kMrymUo2u-11" value="&lt;span style=&quot;font-size: 19px&quot;&gt;&amp;nbsp;نمایش صفحه ی ورود&lt;br&gt;&lt;/span&gt;&lt;span style=&quot;font-size: 19px&quot;&gt;(login)&lt;/span&gt;" style="shape=rect;html=1;rounded=1;whiteSpace=wrap;align=center;fontSize=21;fontStyle=1" vertex="1" parent="1">
          <mxGeometry x="141" y="743" width="174" height="70" as="geometry" />
        </mxCell>
        <mxCell id="E-XWAP4hK30kMrymUo2u-12" value="" style="rhombus;" vertex="1" parent="1">
          <mxGeometry x="368.5" y="853" width="93" height="85" as="geometry" />
        </mxCell>
        <mxCell id="E-XWAP4hK30kMrymUo2u-18" value="" style="endArrow=open;endFill=1;endSize=12;html=1;fontSize=21;exitX=0.5;exitY=1;exitDx=0;exitDy=0;entryX=1;entryY=0.5;entryDx=0;entryDy=0;" edge="1" parent="1" source="8efTD4OEWqOGp4i1g3Z0-60" target="E-XWAP4hK30kMrymUo2u-12">
          <mxGeometry width="160" relative="1" as="geometry">
            <mxPoint x="461.5" y="955.5" as="sourcePoint" />
            <mxPoint x="603" y="883" as="targetPoint" />
            <Array as="points">
              <mxPoint x="599" y="896" />
            </Array>
          </mxGeometry>
        </mxCell>
        <mxCell id="E-XWAP4hK30kMrymUo2u-19" value="" style="endArrow=open;endFill=1;endSize=12;html=1;fontSize=21;exitX=0.5;exitY=1;exitDx=0;exitDy=0;entryX=0;entryY=0.5;entryDx=0;entryDy=0;" edge="1" parent="1" source="E-XWAP4hK30kMrymUo2u-11" target="E-XWAP4hK30kMrymUo2u-12">
          <mxGeometry width="160" relative="1" as="geometry">
            <mxPoint x="607.5799999999999" y="813" as="sourcePoint" />
            <mxPoint x="607.5799999999999" y="883" as="targetPoint" />
            <Array as="points">
              <mxPoint x="228" y="896" />
            </Array>
          </mxGeometry>
        </mxCell>
        <mxCell id="E-XWAP4hK30kMrymUo2u-20" value="&lt;span style=&quot;font-size: 19px&quot;&gt;نمایش پرسش اطمینان از خروج&lt;/span&gt;" style="shape=rect;html=1;rounded=1;whiteSpace=wrap;align=center;fontSize=21;fontStyle=1" vertex="1" parent="1">
          <mxGeometry x="328" y="373" width="174" height="70" as="geometry" />
        </mxCell>
        <mxCell id="E-XWAP4hK30kMrymUo2u-21" value="" style="endArrow=open;endFill=1;endSize=12;html=1;fontSize=21;entryX=0.5;entryY=0;entryDx=0;entryDy=0;exitX=0.5;exitY=1;exitDx=0;exitDy=0;" edge="1" parent="1" source="E-XWAP4hK30kMrymUo2u-20" target="E-XWAP4hK30kMrymUo2u-5">
          <mxGeometry width="160" relative="1" as="geometry">
            <mxPoint x="415" y="443" as="sourcePoint" />
            <mxPoint x="425" y="373" as="targetPoint" />
          </mxGeometry>
        </mxCell>
      </root>
    </mxGraphModel>
  </diagram>
</mxfile>
